<svg xmlns="http://www.w3.org/2000/svg" xmlns:xlink="http://www.w3.org/1999/xlink" width="391.461" height="82.027" viewBox="0 0 391.461 82.027">
  <defs>
    <linearGradient id="linear-gradient" y1="0.5" x2="1" y2="0.5" gradientUnits="objectBoundingBox">
      <stop offset="0" stop-color="#ffe37f"/>
      <stop offset="0.204" stop-color="#d6a114"/>
      <stop offset="0.327" stop-color="#754c24"/>
      <stop offset="0.36" stop-color="#7e5324"/>
      <stop offset="0.416" stop-color="#976827"/>
      <stop offset="0.486" stop-color="#c0892c"/>
      <stop offset="0.5" stop-color="#ca912d"/>
      <stop offset="0.77" stop-color="#edaa46"/>
      <stop offset="0.786" stop-color="#f0ac48"/>
      <stop offset="0.994" stop-color="#ffe37f"/>
    </linearGradient>
  </defs>
  <g id="Group_2" data-name="Group 2" transform="translate(-1036.385 -1583.271)">
    <g id="Group_1" data-name="Group 1" transform="translate(1036.385 1613.966)">
      <path id="Path_1" data-name="Path 1" d="M1057.676,1652.271l-2.947,2.916a8.715,8.715,0,0,0-6.525-2.961,7.457,7.457,0,0,0-5.44,2.153,7.059,7.059,0,0,0-2.192,5.233,7.244,7.244,0,0,0,2.274,5.4,7.741,7.741,0,0,0,5.613,2.213,6.886,6.886,0,0,0,3.659-.912,6.422,6.422,0,0,0,2.4-2.856h-6.369v-3.933h11.064l.03.927a10.774,10.774,0,0,1-1.495,5.473,10.452,10.452,0,0,1-3.873,3.947,11.038,11.038,0,0,1-5.577,1.361,12.383,12.383,0,0,1-6.107-1.488,10.885,10.885,0,0,1-4.246-4.239,11.824,11.824,0,0,1-1.562-5.936,11.033,11.033,0,0,1,2.885-7.6,11.377,11.377,0,0,1,8.912-3.842,13.587,13.587,0,0,1,5.368,1.061A12.318,12.318,0,0,1,1057.676,1652.271Z" transform="translate(-1036.385 -1648.129)" fill="#152f01"/>
      <path id="Path_2" data-name="Path 2" d="M1093.41,1649.3h4.435a14.658,14.658,0,0,1,5.189.65,5.318,5.318,0,0,1,2.487,2.161,6.618,6.618,0,0,1,.941,3.573,6.085,6.085,0,0,1-1.04,3.625,6.308,6.308,0,0,1-3.132,2.206l5.21,9.778h-4.577l-4.946-9.315h-.383v9.315h-4.186Zm4.186,8.6h1.312a5.121,5.121,0,0,0,2.75-.525,1.971,1.971,0,0,0,.753-1.74,2.131,2.131,0,0,0-.373-1.252,2.07,2.07,0,0,0-1-.766,7.586,7.586,0,0,0-2.3-.232H1097.6Z" transform="translate(-1066.422 -1648.745)" fill="#152f01"/>
      <path id="Path_3" data-name="Path 3" d="M1135.079,1649.3h4.245l8.459,21.994h-4.351l-1.72-4.53h-8.974l-1.79,4.53H1126.6Zm2.149,5.831-2.951,7.551h5.884Z" transform="translate(-1083.903 -1648.745)" fill="#152f01"/>
      <path id="Path_4" data-name="Path 4" d="M1174.9,1649.3h4.495l4.1,7.912,4.084-7.912h4.438l-6.436,12.47v9.524h-4.216v-9.524Z" transform="translate(-1109.348 -1648.745)" fill="#152f01"/>
      <path id="Path_5" data-name="Path 5" d="M1227.756,1651.672l-3.1,2.737q-1.633-2.272-3.325-2.273a2.026,2.026,0,0,0-1.348.441,1.287,1.287,0,0,0-.524.995,1.7,1.7,0,0,0,.374,1.046,28.43,28.43,0,0,0,3.07,2.826q2.4,2,2.906,2.527a8.763,8.763,0,0,1,1.8,2.459,6.143,6.143,0,0,1,.532,2.564,5.879,5.879,0,0,1-1.871,4.47,6.819,6.819,0,0,1-4.879,1.764,7.263,7.263,0,0,1-4.094-1.151,9.1,9.1,0,0,1-2.986-3.618l3.519-2.124q1.588,2.916,3.654,2.916a2.69,2.69,0,0,0,1.812-.628,1.869,1.869,0,0,0,.734-1.45,2.5,2.5,0,0,0-.554-1.495,16,16,0,0,0-2.441-2.288,24.621,24.621,0,0,1-4.643-4.523,5.743,5.743,0,0,1-1.048-3.177,5.2,5.2,0,0,1,1.744-3.925,6.05,6.05,0,0,1,4.3-1.637,6.789,6.789,0,0,1,3.136.763A11.433,11.433,0,0,1,1227.756,1651.672Z" transform="translate(-1130.107 -1648.129)" fill="#152f01"/>
      <path id="Path_6" data-name="Path 6" d="M1256.711,1649.3h4.245l8.459,21.994h-4.351l-1.721-4.53h-8.974l-1.789,4.53h-4.351Zm2.149,5.831-2.951,7.551h5.884Z" transform="translate(-1147.972 -1648.745)" fill="#152f01"/>
      <path id="Path_7" data-name="Path 7" d="M1499.86,1652.547l-2.928,2.792a9.065,9.065,0,0,0-6.722-3.158,7.365,7.365,0,0,0-7.469,7.468,7.858,7.858,0,0,0,.956,3.907,6.852,6.852,0,0,0,2.7,2.679,7.853,7.853,0,0,0,3.885.973,7.994,7.994,0,0,0,3.331-.682,11.944,11.944,0,0,0,3.317-2.476l2.838,2.962a15.589,15.589,0,0,1-4.6,3.3,12.572,12.572,0,0,1-4.949.92,11.393,11.393,0,0,1-8.4-3.252,11.259,11.259,0,0,1-3.267-8.336,11.409,11.409,0,0,1,1.488-5.846,11.068,11.068,0,0,1,4.261-4.112,12.03,12.03,0,0,1,5.974-1.554,12.682,12.682,0,0,1,9.584,4.418Z" transform="translate(-1269.292 -1648.129)" fill="#152f01"/>
      <path id="Path_8" data-name="Path 8" d="M1540.484,1648.129a10.921,10.921,0,0,1,8.027,3.379,11.245,11.245,0,0,1,3.359,8.238,11.121,11.121,0,0,1-3.314,8.149,11.483,11.483,0,0,1-16.27-.09,11.556,11.556,0,0,1,8.2-19.676Zm-.045,4.1a6.9,6.9,0,0,0-5.133,2.124,7.393,7.393,0,0,0-2.081,5.4,7.033,7.033,0,0,0,2.62,5.771,7.182,7.182,0,0,0,4.67,1.659,6.814,6.814,0,0,0,5.073-2.153,7.759,7.759,0,0,0-.014-10.623A6.884,6.884,0,0,0,1540.439,1652.226Z" transform="translate(-1295.869 -1648.129)" fill="#152f01"/>
      <path id="Path_9" data-name="Path 9" d="M1585.654,1649.3h4.186v18h6.1v3.992h-10.287Z" transform="translate(-1325.706 -1648.745)" fill="#152f01"/>
      <path id="Path_10" data-name="Path 10" d="M1614.118,1649.3h4.187v18h6.1v3.992h-10.287Z" transform="translate(-1340.699 -1648.745)" fill="#152f01"/>
      <path id="Path_11" data-name="Path 11" d="M1642.615,1649.3h12.006v4.1h-7.85v3.977h7.85v4.022h-7.85v5.786h7.85v4.112h-12.006Z" transform="translate(-1355.71 -1648.745)" fill="#152f01"/>
      <path id="Path_12" data-name="Path 12" d="M1695.229,1652.547l-2.928,2.792a9.065,9.065,0,0,0-6.722-3.158,7.365,7.365,0,0,0-7.469,7.468,7.858,7.858,0,0,0,.955,3.907,6.855,6.855,0,0,0,2.7,2.679,7.854,7.854,0,0,0,3.884.973,7.994,7.994,0,0,0,3.331-.682,11.937,11.937,0,0,0,3.317-2.476l2.838,2.962a15.586,15.586,0,0,1-4.6,3.3,12.574,12.574,0,0,1-4.949.92,11.393,11.393,0,0,1-8.4-3.252,11.259,11.259,0,0,1-3.267-8.336,11.407,11.407,0,0,1,1.488-5.846,11.062,11.062,0,0,1,4.261-4.112,12.025,12.025,0,0,1,5.973-1.554,12.681,12.681,0,0,1,9.584,4.418Z" transform="translate(-1372.201 -1648.129)" fill="#152f01"/>
      <path id="Path_13" data-name="Path 13" d="M1722.1,1649.3h12.155v4.127h-4.007v17.867H1726v-17.867h-3.9Z" transform="translate(-1397.579 -1648.745)" fill="#152f01"/>
      <path id="Path_14" data-name="Path 14" d="M1753.221,1649.3h4.156v21.994h-4.156Z" transform="translate(-1413.97 -1648.745)" fill="#152f01"/>
      <path id="Path_15" data-name="Path 15" d="M1781.125,1648.129a10.922,10.922,0,0,1,8.026,3.379,11.246,11.246,0,0,1,3.359,8.238,11.12,11.12,0,0,1-3.314,8.149,11.482,11.482,0,0,1-16.27-.09,11.556,11.556,0,0,1,8.2-19.676Zm-.045,4.1a6.9,6.9,0,0,0-5.134,2.124,7.394,7.394,0,0,0-2.081,5.4,7.033,7.033,0,0,0,2.62,5.771,7.18,7.18,0,0,0,4.669,1.659,6.815,6.815,0,0,0,5.074-2.153,7.759,7.759,0,0,0-.015-10.623A6.884,6.884,0,0,0,1781.08,1652.226Z" transform="translate(-1422.623 -1648.129)" fill="#152f01"/>
      <path id="Path_16" data-name="Path 16" d="M1826.326,1649.3h4.016l9.41,14.473V1649.3h4.187v21.994h-4.027l-9.4-14.429v14.429h-4.186Z" transform="translate(-1452.478 -1648.745)" fill="#152f01"/>
    </g>
    <path id="Path_17" data-name="Path 17" d="M1349.376,1637.773c-.226-.12-.382,0-.544.062a21.513,21.513,0,0,1-12.957.677c-.588-.147-.59-.148-.911.363-.879,1.4-1.8,2.778-2.615,4.213a2.04,2.04,0,0,1-1.474,1.04,3.837,3.837,0,0,0-1.036.31c-.235.124-.326.016-.368-.207a1.283,1.283,0,0,1,.267-.952c1.217-1.91,2.42-3.828,3.638-5.738q10.114-15.859,20.047-31.831,4.719-7.545,9.476-15.067a2.772,2.772,0,0,0,.308-.664c-.6.574-1.217,1.112-1.822,1.663-.687.625-1.349,1.278-2.058,1.877-1.416,1.194-2.691,2.54-4.1,3.744a3.706,3.706,0,0,0-.733.884q-2.157,3.48-4.332,6.949-1.681,2.689-3.368,5.373-2.75,4.4-5.495,8.794c-1.073,1.723-2.129,3.454-3.194,5.182q-.921,1.494-1.843,2.988-3.748,6.051-7.492,12.106c-.3.495-.685.929-.978,1.437-.868,1.505-1.79,2.98-2.706,4.457q-2.856,4.6-5.725,9.2a6.006,6.006,0,0,0-.605.957.5.5,0,0,1-.414.31c-.774.13-1.548.268-2.317.4-.1-.209.059-.313.136-.435q5.192-8.372,10.39-16.74,1.055-1.7,2.112-3.4c.3-.479.294-.481-.126-.8a21.346,21.346,0,0,1-7.31-24.2c2.756-7.536,8.2-12.071,16.167-13.343a20.864,20.864,0,0,1,13.042,2.209c.553.284.555.292.892-.245.481-.768.96-1.536,1.426-2.313a5.122,5.122,0,0,1,.947-1.147q6.741-6.169,13.47-12.352a.721.721,0,0,1,.952-.155,6.942,6.942,0,0,0,1.028.521c.266.091.254.291.135.492-.184.312-.379.617-.573.924-1.25,1.981-2.462,3.987-3.761,5.936-1.326,1.987-2.495,4.068-3.8,6.065-1.051,1.6-2.051,3.239-3.072,4.861q-1.917,3.041-3.832,6.083-.966,1.534-1.937,3.069-1.134,1.795-2.271,3.588c-.625.988-1.256,1.974-1.877,2.965-.09.144-.25.272-.183.5a12.978,12.978,0,0,0,2.213.05c2.1.018,4.208-.052,6.31,0,.754.019,1.5-.052,2.253-.025.768.028,1.538.018,2.307.012.678,0,.792.094.773.786a20.855,20.855,0,0,1-1.861,8.09c-.1.217-.19.437-.3.693a1.828,1.828,0,0,0,.695-.218,23.673,23.673,0,0,1,18.08.07c.083.034.165.076.25.1.3.1.345.246.233.56a18.687,18.687,0,0,1-1.406,2.934c-.189.333-.225.843-.539.986s-.691-.229-1.044-.363a17.7,17.7,0,0,0-16.58,1.533,14.1,14.1,0,0,0-4.978,5.43,13.267,13.267,0,0,0-.666,11.269,14.128,14.128,0,0,0,3.749,5.411,15.663,15.663,0,0,0,3.669,2.5,17.98,17.98,0,0,0,17.309-.8c.15-.1.3-.186.494-.3,1.148,1.388,2.1,2.9,3.277,4.292a16.068,16.068,0,0,1-3.145,1.778,23.392,23.392,0,0,1-17.168.893,20.274,20.274,0,0,1-11.528-8.889,17.749,17.749,0,0,1-1.333-16.486A3.6,3.6,0,0,0,1349.376,1637.773Zm-24.462-19.063a16.007,16.007,0,0,0,1.4,6.265,16.4,16.4,0,0,0,4.551,5.932c.547.451.551.447.91-.2.043-.078.089-.154.137-.229q2.744-4.357,5.486-8.715,3.447-5.494,6.879-11,1.654-2.652,3.285-5.318c.3-.495.293-.493-.214-.789a13.244,13.244,0,0,0-4.937-1.62,15.188,15.188,0,0,0-8.8,1.391,15.94,15.94,0,0,0-7.934,8.8,10.784,10.784,0,0,0-.311,1.414A15.733,15.733,0,0,0,1324.914,1618.71Zm16.058,15.807a11.935,11.935,0,0,0,1.424-.008,15.428,15.428,0,0,0,13.069-10.666c.148-.463.1-.55-.345-.544-.521.007-1.037-.071-1.554-.071-1.512,0-3.019-.14-4.532-.1-1.239.036-2.479.031-3.719.02a.793.793,0,0,0-.768.429c-.495.811-1.013,1.607-1.536,2.4-.67,1.015-1.326,2.043-1.958,3.078-.741,1.214-1.5,2.418-2.233,3.637a11.247,11.247,0,0,0-.7.975c-.218.467-.163.6.35.678A11.451,11.451,0,0,0,1340.971,1634.517Z" transform="translate(-147.281)" fill="url(#linear-gradient)"/>
  </g>
</svg>
