<svg xmlns="http://www.w3.org/2000/svg" width="205.269" height="254.263" viewBox="0 0 205.269 254.263">
  <path id="Path_62" data-name="Path 62" d="M1419.47,1752.213c-.7-.372-1.184,0-1.686.191a66.682,66.682,0,0,1-40.164,2.1c-1.824-.456-1.828-.459-2.823,1.126-2.725,4.34-5.571,8.61-8.107,13.058a6.324,6.324,0,0,1-4.57,3.224,11.874,11.874,0,0,0-3.212.96c-.728.385-1.012.048-1.14-.64a3.976,3.976,0,0,1,.829-2.952c3.772-5.92,7.5-11.866,11.277-17.785q31.35-49.159,62.141-98.669,14.627-23.388,29.373-46.7a8.575,8.575,0,0,0,.954-2.058c-1.854,1.78-3.771,3.447-5.648,5.156-2.129,1.938-4.182,3.962-6.38,5.817-4.389,3.7-8.343,7.875-12.7,11.606a11.489,11.489,0,0,0-2.272,2.739q-6.685,10.789-13.429,21.541-5.212,8.336-10.441,16.656-8.525,13.626-17.033,27.26c-3.324,5.339-6.6,10.708-9.9,16.064q-2.854,4.631-5.713,9.261-11.618,18.757-23.222,37.526c-.943,1.534-2.125,2.879-3.032,4.454-2.691,4.666-5.549,9.236-8.389,13.814q-8.854,14.272-17.747,28.518a18.6,18.6,0,0,0-1.876,2.967,1.538,1.538,0,0,1-1.283.961c-2.4.4-4.8.83-7.183,1.247-.311-.649.184-.969.421-1.349q16.093-25.951,32.208-51.891,3.27-5.264,6.545-10.527c.921-1.485.913-1.492-.392-2.478-23-17.392-32.538-48-22.658-75.01,8.544-23.361,25.408-37.418,50.112-41.361,14.141-2.256,27.671.317,40.425,6.846,1.715.88,1.722.9,2.765-.759,1.49-2.38,2.977-4.762,4.42-7.169a15.866,15.866,0,0,1,2.936-3.554q20.9-19.123,41.754-38.288a2.236,2.236,0,0,1,2.952-.479,21.56,21.56,0,0,0,3.187,1.614c.826.283.787.9.419,1.525-.57.967-1.175,1.912-1.775,2.863-3.874,6.14-7.631,12.359-11.658,18.4-4.109,6.159-7.733,12.611-11.788,18.8-3.256,4.969-6.356,10.041-9.523,15.068q-5.941,9.428-11.879,18.855-3,4.756-6,9.513-3.516,5.563-7.04,11.122c-1.939,3.063-3.892,6.117-5.817,9.189-.28.447-.775.844-.567,1.554a40.269,40.269,0,0,0,6.86.156c6.522.056,13.045-.162,19.561,0,2.337.059,4.653-.161,6.982-.076,2.381.087,4.768.055,7.15.038,2.1-.014,2.456.292,2.4,2.437a64.652,64.652,0,0,1-5.77,25.076c-.305.672-.59,1.355-.933,2.148a5.663,5.663,0,0,0,2.153-.675c18.709-7.319,37.39-7.293,56.044.217.259.1.511.235.776.321.921.305,1.069.763.722,1.736a57.943,57.943,0,0,1-4.358,9.1c-.587,1.033-.7,2.612-1.671,3.055-1.016.465-2.143-.711-3.237-1.126-17.908-6.792-35.1-5.573-51.393,4.753a43.709,43.709,0,0,0-15.431,16.833c-5.95,11.31-6.513,23-2.063,34.93a43.8,43.8,0,0,0,11.62,16.774,48.527,48.527,0,0,0,11.374,7.763c17.14,8.624,38.337,7.218,53.652-2.482.466-.3.942-.576,1.53-.935,3.56,4.3,6.5,9,10.159,13.3a49.815,49.815,0,0,1-9.747,5.512,72.508,72.508,0,0,1-53.217,2.768c-15.139-4.907-27.434-13.814-35.732-27.553-9.825-16.266-11.144-33.388-4.132-51.1A11.178,11.178,0,0,0,1419.47,1752.213Zm-75.827-59.09a49.61,49.61,0,0,0,4.354,19.419,50.839,50.839,0,0,0,14.106,18.387c1.7,1.4,1.708,1.384,2.82-.62.134-.24.277-.477.424-.71q8.5-13.507,17.006-27.014,10.684-17.03,21.324-34.084,5.128-8.219,10.183-16.484c.941-1.533.908-1.529-.663-2.445a41.054,41.054,0,0,0-15.3-5.022,47.076,47.076,0,0,0-27.272,4.311c-11.9,5.737-19.681,15.193-24.594,27.266a33.388,33.388,0,0,0-.962,4.384A48.748,48.748,0,0,0,1343.643,1693.123Zm49.775,49a36.951,36.951,0,0,0,4.414-.024,47.826,47.826,0,0,0,40.511-33.062c.458-1.434.325-1.706-1.071-1.685-1.617.021-3.214-.221-4.817-.221-4.687,0-9.357-.435-14.049-.3-3.839.112-7.685.1-11.527.063a2.458,2.458,0,0,0-2.38,1.33c-1.534,2.513-3.139,4.981-4.762,7.439-2.077,3.146-4.109,6.333-6.069,9.54-2.3,3.762-4.646,7.5-6.921,11.274a34.818,34.818,0,0,0-2.163,3.022c-.677,1.448-.506,1.864,1.083,2.1A35.49,35.49,0,0,0,1393.418,1742.121Z" transform="translate(-1315.994 -1583.271)" fill="#fff8e9"/>
</svg>
