<svg xmlns="http://www.w3.org/2000/svg" xmlns:xlink="http://www.w3.org/1999/xlink" width="66.221" height="82.027" viewBox="0 0 66.221 82.027">
  <defs>
    <linearGradient id="linear-gradient" y1="0.5" x2="1" y2="0.5" gradientUnits="objectBoundingBox">
      <stop offset="0" stop-color="#ffe37f"/>
      <stop offset="0.204" stop-color="#d6a114"/>
      <stop offset="0.327" stop-color="#754c24"/>
      <stop offset="0.36" stop-color="#7e5324"/>
      <stop offset="0.416" stop-color="#976827"/>
      <stop offset="0.486" stop-color="#c0892c"/>
      <stop offset="0.5" stop-color="#ca912d"/>
      <stop offset="0.77" stop-color="#edaa46"/>
      <stop offset="0.786" stop-color="#f0ac48"/>
      <stop offset="0.994" stop-color="#ffe37f"/>
    </linearGradient>
  </defs>
  <path id="Path_17" data-name="Path 17" d="M1349.376,1637.773c-.226-.12-.382,0-.544.062a21.513,21.513,0,0,1-12.957.677c-.588-.147-.59-.148-.911.363-.879,1.4-1.8,2.778-2.615,4.213a2.04,2.04,0,0,1-1.474,1.04,3.837,3.837,0,0,0-1.036.31c-.235.124-.326.016-.368-.207a1.283,1.283,0,0,1,.267-.952c1.217-1.91,2.42-3.828,3.638-5.738q10.114-15.859,20.047-31.831,4.719-7.545,9.476-15.067a2.772,2.772,0,0,0,.308-.664c-.6.574-1.217,1.112-1.822,1.663-.687.625-1.349,1.278-2.058,1.877-1.416,1.194-2.691,2.54-4.1,3.744a3.706,3.706,0,0,0-.733.884q-2.157,3.48-4.332,6.949-1.681,2.689-3.368,5.373-2.75,4.4-5.495,8.794c-1.073,1.723-2.129,3.454-3.194,5.182q-.921,1.494-1.843,2.988-3.748,6.051-7.492,12.106c-.3.495-.685.929-.978,1.437-.868,1.505-1.79,2.98-2.706,4.457q-2.856,4.6-5.725,9.2a6.006,6.006,0,0,0-.605.957.5.5,0,0,1-.414.31c-.774.13-1.548.268-2.317.4-.1-.209.059-.313.136-.435q5.192-8.372,10.39-16.74,1.055-1.7,2.112-3.4c.3-.479.294-.481-.126-.8a21.346,21.346,0,0,1-7.31-24.2c2.756-7.536,8.2-12.071,16.167-13.343a20.864,20.864,0,0,1,13.042,2.209c.553.284.555.292.892-.245.481-.768.96-1.536,1.426-2.313a5.122,5.122,0,0,1,.947-1.147q6.741-6.169,13.47-12.352a.721.721,0,0,1,.952-.155,6.942,6.942,0,0,0,1.028.521c.266.091.254.291.135.492-.184.312-.379.617-.573.924-1.25,1.981-2.462,3.987-3.761,5.936-1.326,1.987-2.495,4.068-3.8,6.065-1.051,1.6-2.051,3.239-3.072,4.861q-1.917,3.041-3.832,6.083-.966,1.534-1.937,3.069-1.134,1.795-2.271,3.588c-.625.988-1.256,1.974-1.877,2.965-.09.144-.25.272-.183.5a12.978,12.978,0,0,0,2.213.05c2.1.018,4.208-.052,6.31,0,.754.019,1.5-.052,2.253-.025.768.028,1.538.018,2.307.012.678,0,.792.094.773.786a20.855,20.855,0,0,1-1.861,8.09c-.1.217-.19.437-.3.693a1.828,1.828,0,0,0,.695-.218,23.673,23.673,0,0,1,18.08.07c.083.034.165.076.25.1.3.1.345.246.233.56a18.687,18.687,0,0,1-1.406,2.934c-.189.333-.225.843-.539.986s-.691-.229-1.044-.363a17.7,17.7,0,0,0-16.58,1.533,14.1,14.1,0,0,0-4.978,5.43,13.267,13.267,0,0,0-.666,11.269,14.128,14.128,0,0,0,3.749,5.411,15.663,15.663,0,0,0,3.669,2.5,17.98,17.98,0,0,0,17.309-.8c.15-.1.3-.186.494-.3,1.148,1.388,2.1,2.9,3.277,4.292a16.068,16.068,0,0,1-3.145,1.778,23.392,23.392,0,0,1-17.168.893,20.274,20.274,0,0,1-11.528-8.889,17.749,17.749,0,0,1-1.333-16.486A3.6,3.6,0,0,0,1349.376,1637.773Zm-24.462-19.063a16.007,16.007,0,0,0,1.4,6.265,16.4,16.4,0,0,0,4.551,5.932c.547.451.551.447.91-.2.043-.078.089-.154.137-.229q2.744-4.357,5.486-8.715,3.447-5.494,6.879-11,1.654-2.652,3.285-5.318c.3-.495.293-.493-.214-.789a13.244,13.244,0,0,0-4.937-1.62,15.188,15.188,0,0,0-8.8,1.391,15.94,15.94,0,0,0-7.934,8.8,10.784,10.784,0,0,0-.311,1.414A15.733,15.733,0,0,0,1324.914,1618.71Zm16.058,15.807a11.935,11.935,0,0,0,1.424-.008,15.428,15.428,0,0,0,13.069-10.666c.148-.463.1-.55-.345-.544-.521.007-1.037-.071-1.554-.071-1.512,0-3.019-.14-4.532-.1-1.239.036-2.479.031-3.719.02a.793.793,0,0,0-.768.429c-.495.811-1.013,1.607-1.536,2.4-.67,1.015-1.326,2.043-1.958,3.078-.741,1.214-1.5,2.418-2.233,3.637a11.247,11.247,0,0,0-.7.975c-.218.467-.163.6.35.678A11.451,11.451,0,0,0,1340.971,1634.517Z" transform="translate(-1315.994 -1583.271)" fill="url(#linear-gradient)"/>
</svg>
