<svg xmlns="http://www.w3.org/2000/svg" width="41.028" height="40.877" viewBox="0 0 41.028 40.877"><path d="M1376.6,568.5c0-1.9.042-3.8-.017-5.694-.03-.957.194-1.392,1.266-1.364,1.153.03,2.6.519,3.4-.251.783-.749.5-2.22.71-3.37.426-2.362.4-2.367-2.006-2.367-3.441,0-3.441,0-3.352-3.435.064-2.487,1.132-3.495,3.765-3.552,2.223-.049,2.223-.049,2.223-2.238,0-3.027,0-3.028-3.036-3.2-.361-.021-.723-.029-1.084-.034-5.352-.077-8.25,2.719-8.358,8.075-.023,1.129-.039,2.261.006,3.389.031.781-.293,1.035-1.037,1.007-1.038-.039-2.079.01-3.118-.014-.643-.015-1.028.146-1.011.9q.048,2.1,0,4.2c-.016.727.33.941.992.926,1.039-.023,2.08.022,3.118-.011.717-.023,1.065.177,1.059.983q-.044,6.168,0,12.337c.011,1.411-.889.818-1.468.691a20.283,20.283,0,0,1-15.5-16.632c-1.247-8.406,1.6-15.334,8.58-20.162,6.932-4.792,14.444-5.114,21.767-.961,7.383,4.187,10.832,10.855,10.352,19.322a20.035,20.035,0,0,1-4.647,11.59,20.443,20.443,0,0,1-10.9,6.814c-1.687.412-1.69.412-1.693-1.388Q1376.6,571.283,1376.6,568.5Z" transform="translate(-1352.859 -534.834)" fill="#333"/></svg>