<svg xmlns="http://www.w3.org/2000/svg" width="41.083" height="41.014" viewBox="0 0 41.083 41.014"><g transform="translate(0 0)"><path d="M1591.442,575.595A20.507,20.507,0,1,1,1612,555.108,20.5,20.5,0,0,1,1591.442,575.595Zm-12-20.629c0,1.669-.022,3.339,0,5.009a7.068,7.068,0,0,0,6.783,7.09c3.469.13,6.951.124,10.421.005a7.091,7.091,0,0,0,6.842-7.044q.092-4.939,0-9.882a7.136,7.136,0,0,0-6.925-7.118c-3.381-.1-6.77-.1-10.151,0a7.123,7.123,0,0,0-6.97,7.2C1579.425,551.806,1579.445,553.386,1579.445,554.965Z" transform="translate(-1570.921 -534.581)" fill="#333"/><path d="M1620.306,593.568c-1.581,0-3.163.031-4.743-.007a4.778,4.778,0,0,1-4.86-4.665q-.158-5.009,0-10.027a4.718,4.718,0,0,1,4.719-4.669c3.339-.1,6.687-.1,10.026.008a4.774,4.774,0,0,1,4.676,4.854q.079,4.81,0,9.622a4.845,4.845,0,0,1-4.938,4.878C1623.56,593.6,1621.933,593.568,1620.306,593.568Zm6.093-9.576a5.909,5.909,0,1,0-6.015,5.827A5.859,5.859,0,0,0,1626.4,583.992Zm1.8-6.441c-.108-.8-.523-1.363-1.369-1.382a1.4,1.4,0,1,0,.012,2.792A1.374,1.374,0,0,0,1628.2,577.551Z" transform="translate(-1599.858 -563.404)" fill="#333"/><path d="M1633.192,599.993a3.753,3.753,0,0,1,7.5.075,3.753,3.753,0,1,1-7.5-.075Z" transform="translate(-1616.307 -579.554)" fill="#333"/></g></svg>