<svg xmlns="http://www.w3.org/2000/svg" width="41.06" height="41.012" viewBox="0 0 41.06 41.012"><path d="M1829.62,555.141a20.53,20.53,0,1,1-20.472-20.556A20.463,20.463,0,0,1,1829.62,555.141Zm-16.22-5.159a8.739,8.739,0,0,0,4.054,2.582c2.15.515,2.353.382,2.354-1.764,0-.5-.023-1,0-1.491.029-.606-.237-.864-.833-1a6.665,6.665,0,0,1-5.35-5.149c-.172-.665-.479-.9-1.119-.855a7.152,7.152,0,0,1-1.354,0c-1.123-.14-1.468.305-1.46,1.438.039,5.467.014,10.936-.03,16.4a4.023,4.023,0,0,1-8.008.527,3.866,3.866,0,0,1,3.265-4.294c1.011-.169,1.293-.564,1.182-1.482a5.148,5.148,0,0,1,0-1.218c.139-1.152-.409-1.371-1.44-1.252a7.83,7.83,0,1,0,7.249,12.376,8.2,8.2,0,0,0,1.494-4.975C1813.388,556.671,1813.4,553.516,1813.4,549.982Z" transform="translate(-1788.56 -534.585)" fill="#333"/></svg>