<svg xmlns="http://www.w3.org/2000/svg" width="40.904" height="40.872" viewBox="0 0 40.904 40.872"><path d="M2006.742,555.3a20.452,20.452,0,1,1,20.428,20.414A20.428,20.428,0,0,1,2006.742,555.3Zm20.406,7.705h5.959c.09,0,.181,0,.271,0a4.768,4.768,0,0,0,4.8-4.84c.034-1.805.017-3.611.005-5.417-.02-2.991-1.812-5.071-4.766-5.157-4.194-.122-8.4-.127-12.592.009a4.691,4.691,0,0,0-4.666,4.97q-.036,2.708,0,5.417a4.778,4.778,0,0,0,5.03,5.015C2023.175,563.024,2025.161,563.007,2027.148,563.007Z" transform="translate(-2006.742 -534.844)" fill="#333"/><path d="M2072.075,602.354c0-.718,0-1.437,0-2.155,0-.919.493-1.114,1.228-.732,1.552.809,3.079,1.666,4.619,2.5.608.33.728.63,0,.982-1.535.744-3.052,1.525-4.588,2.265-.852.411-1.277.107-1.261-.84C2072.085,603.7,2072.076,603.028,2072.075,602.354Z" transform="translate(-2054.358 -581.81)" fill="#333"/></svg>